<?xml version="1.0" encoding="utf-8"?>
<!-- Generator: Adobe Illustrator 21.1.0, SVG Export Plug-In . SVG Version: 6.00 Build 0)  -->
<svg version="1.1" id="Capa_1" xmlns="http://www.w3.org/2000/svg" xmlns:xlink="http://www.w3.org/1999/xlink" x="0px" y="0px"
	 viewBox="0 0 192.9 358.7" style="enable-background:new 0 0 192.9 358.7;" xml:space="preserve">
<style type="text/css">
	.st0{fill:#838382;}
	.st1{fill:#00AEC3;}
</style>
<title>isologotipo_c</title>
<path class="st0" d="M35.8,242.9v5.9c-1,0.2-2,0.3-3.1,0.3c-1.9,0.1-3.8-0.4-5.3-1.5c-2.4-2.7-2.4-6.8,0-9.5
	c1.5-1.2,3.3-1.7,5.2-1.6c0.9,0,1.9,0.1,2.8,0.3v2.2c-0.8-0.2-1.7-0.3-2.5-0.3c-0.9,0-1.7,0.1-2.5,0.4c-0.6,0.3-1.1,0.7-1.4,1.3
	c-0.3,0.8-0.5,1.6-0.5,2.4c-0.1,1.1,0.3,2.2,1,3c0.8,0.7,1.9,1.1,3,1h0.8v-3.9L35.8,242.9z"/>
<path class="st0" d="M40.3,248.4c-0.9-0.5-1.6-1.2-2-2.1c-0.9-2.2-0.9-4.8,0-7c0.4-0.9,1.1-1.6,2-2.1c2-0.9,4.2-0.9,6.2,0
	c0.9,0.5,1.6,1.2,2,2.1c0.9,2.2,0.9,4.8,0,7c-0.4,0.9-1.1,1.6-2,2.1C44.5,249.3,42.2,249.3,40.3,248.4 M45.6,245.9
	c0.6-0.9,0.9-2,0.8-3.1c0.1-1.1-0.2-2.2-0.8-3.2c-0.5-0.7-1.4-1.1-2.3-1c-0.9,0-1.7,0.3-2.3,1c-0.6,0.9-0.9,2-0.8,3.1
	c-0.1,1.1,0.2,2.2,0.8,3.2c1.2,1.2,3.1,1.3,4.4,0.2C45.5,246,45.5,246,45.6,245.9"/>
<path class="st0" d="M59.9,243.5c0.4,0.6,0.6,1.2,0.6,1.9c0,0.7-0.2,1.4-0.6,2c-0.5,0.6-1.2,1-1.9,1.2c-1.2,0.3-2.3,0.4-3.5,0.4
	c-0.5,0-1.1,0-1.7-0.1c-0.6,0-1.2-0.1-1.7-0.2v-12c0.6-0.1,1.3-0.2,1.9-0.3c0.7-0.1,1.3-0.1,2-0.1c1.4-0.1,2.8,0.2,4,0.9
	c0.8,0.6,1.3,1.6,1.3,2.6c0,0.6-0.2,1.2-0.5,1.7c-0.4,0.5-0.9,0.8-1.5,1C58.9,242.6,59.5,243,59.9,243.5 M53.6,238.5v3h1.8
	c0.6,0,1.2-0.1,1.7-0.4c0.4-0.3,0.6-0.7,0.5-1.2c0-0.3-0.1-0.6-0.2-0.9c-0.2-0.3-0.4-0.4-0.8-0.5c-0.5-0.1-0.9-0.2-1.4-0.2
	C54.7,238.3,54.2,238.3,53.6,238.5 M56.9,246.8c0.4-0.1,0.7-0.3,0.9-0.6c0.2-0.3,0.3-0.6,0.3-1c0-0.5-0.2-1-0.5-1.3
	c-0.5-0.3-1.2-0.5-1.8-0.4h-2v3.5c0.5,0,1,0.1,1.5,0.1c0.6,0,1.1,0,1.7-0.2"/>
<rect x="61.8" y="236.5" class="st0" width="2.7" height="12.2"/>
<polygon class="st0" points="69.7,246.7 75.8,246.7 75.8,248.9 67,248.9 67,236.5 75.7,236.5 75.7,238.7 69.7,238.7 69.7,241.5 
	74.8,241.5 74.8,243.7 69.7,243.7 "/>
<path class="st0" d="M84.8,248.9l-3.2-4.5h-0.2c-0.4,0-0.8,0-1.3,0v4.6h-2.7v-12.1c0.6-0.1,1.2-0.2,1.9-0.3c0.7-0.1,1.3-0.1,2-0.1
	c1.4-0.1,2.8,0.3,4,1c0.9,0.7,1.4,1.8,1.3,3c0,0.8-0.2,1.6-0.6,2.2c-0.5,0.6-1.1,1.1-1.8,1.4l3.5,5L84.8,248.9z M80.2,242.3
	c0.4,0.1,0.9,0.1,1.3,0.1c0.7,0.1,1.4-0.1,2-0.5c0.5-0.4,0.7-0.9,0.6-1.5c0.1-0.6-0.2-1.1-0.6-1.5c-0.6-0.4-1.2-0.5-1.9-0.5
	c-0.5,0-1,0-1.5,0.1L80.2,242.3z"/>
<polygon class="st0" points="97.1,236.6 99.6,236.6 99.6,248.9 96.9,248.9 91.5,240.6 91.5,248.9 89,248.9 89,236.6 91.7,236.6 
	97.1,244.8 "/>
<path class="st0" d="M104.2,248.4c-0.9-0.5-1.6-1.2-2-2.1c-0.9-2.2-0.9-4.8,0-7c0.4-0.9,1.1-1.6,2-2.1c2-0.9,4.2-0.9,6.2,0
	c0.9,0.5,1.6,1.2,2,2.1c0.9,2.2,0.9,4.8,0,7c-0.4,0.9-1.1,1.6-2,2.1C108.4,249.3,106.1,249.3,104.2,248.4 M109.5,245.9
	c0.6-0.9,0.9-2,0.8-3.1c0.1-1.1-0.2-2.2-0.8-3.2c-0.5-0.7-1.4-1.1-2.3-1c-0.9,0-1.7,0.3-2.3,1c-0.6,0.9-0.9,2-0.8,3.1
	c-0.1,1.1,0.2,2.2,0.8,3.2c1.2,1.2,3.1,1.3,4.4,0.2C109.4,246,109.4,246,109.5,245.9"/>
<path class="st0" d="M119.1,248.8v-12c0.6-0.1,1.3-0.2,1.9-0.3c0.7-0.1,1.3-0.1,2-0.1c1.8-0.1,3.6,0.4,5.1,1.6
	c1.2,1.3,1.8,3,1.7,4.8c0.1,1.2-0.2,2.5-0.8,3.6c-0.6,0.9-1.4,1.6-2.4,2c-1.3,0.5-2.7,0.7-4.1,0.6
	C121.3,249,120.2,248.9,119.1,248.8 M125.3,246.3c0.6-0.3,1-0.7,1.3-1.3c0.3-0.8,0.5-1.6,0.4-2.4c0-0.8-0.1-1.6-0.4-2.4
	c-0.3-0.6-0.7-1-1.2-1.3c-0.7-0.3-1.4-0.4-2.1-0.4c-0.5,0-0.9,0-1.4,0.1v8c0.5,0,0.9,0.1,1.4,0.1
	C123.9,246.8,124.6,246.6,125.3,246.3"/>
<polygon class="st0" points="134.3,246.7 140.3,246.7 140.3,248.9 131.6,248.9 131.6,236.5 140.3,236.5 140.3,238.7 134.3,238.7 
	134.3,241.5 139.4,241.5 139.4,243.7 134.3,243.7 "/>
<polygon class="st0" points="146.2,248.9 146.2,236.6 149,236.6 149,246.6 154.6,246.6 154.6,248.9 "/>
<path class="st0" d="M164.1,248.9l-1-3.3h-4.6l-1,3.3h-2.6l4-12.3h4l4,12.3H164.1z M159.1,243.4h3.3l-1.6-5.3L159.1,243.4z"/>
<path class="st0" d="M26,255.9c1.2-0.2,2.5-0.4,3.7-0.4c1.5-0.1,2.9,0.3,4.2,1.1c1,0.8,1.5,2.1,1.4,3.3c0.1,1.3-0.4,2.5-1.3,3.4
	c-1.2,0.8-2.6,1.2-4,1.1h-1.2v3.6H26V255.9z M32,261.9c0.5-0.5,0.7-1.2,0.6-1.8c0-0.7-0.2-1.4-0.7-1.9c-0.6-0.4-1.3-0.6-2-0.6
	c-0.4,0-0.9,0-1.3,0.1v4.7c0.4,0,0.8,0.1,1.2,0.1c0.7,0.1,1.4-0.1,2-0.6"/>
<path class="st0" d="M44.3,268.1l-3.2-4.5H41c-0.4,0-0.8,0-1.3,0v4.6H37V256c0.6-0.1,1.2-0.2,1.9-0.3c0.7-0.1,1.3-0.1,2-0.1
	c1.4-0.1,2.8,0.3,4,1c0.9,0.7,1.4,1.8,1.3,3c0,0.8-0.2,1.6-0.6,2.2c-0.5,0.6-1.1,1.1-1.8,1.4l3.5,5L44.3,268.1z M39.7,261.5
	c0.4,0.1,0.9,0.1,1.3,0.1c0.7,0.1,1.4-0.1,2-0.5c0.5-0.4,0.7-0.9,0.6-1.5c0.1-0.6-0.2-1.1-0.6-1.5c-0.6-0.4-1.2-0.5-1.9-0.5
	c-0.5,0-1,0-1.5,0.1L39.7,261.5z"/>
<path class="st0" d="M50.3,267.5c-0.9-0.5-1.6-1.2-2-2.1c-0.9-2.2-0.9-4.8,0-7c0.4-0.9,1.1-1.6,2-2.1c2-0.9,4.2-0.9,6.2,0
	c0.9,0.5,1.6,1.2,2,2.1c0.9,2.2,0.9,4.8,0,7c-0.4,0.9-1.1,1.6-2,2.1C54.5,268.5,52.2,268.5,50.3,267.5 M55.6,265.1
	c0.6-0.9,0.9-2,0.8-3.1c0.1-1.1-0.2-2.2-0.8-3.2c-0.5-0.7-1.4-1.1-2.3-1c-0.9,0-1.7,0.3-2.3,1c-0.6,0.9-0.9,2-0.8,3.1
	c-0.1,1.1,0.2,2.2,0.8,3.2c1.2,1.2,3.1,1.3,4.3,0.2C55.5,265.2,55.6,265.1,55.6,265.1"/>
<polygon class="st0" points="68.8,255.7 71.5,255.7 67.5,268.1 63.5,268.1 59.5,255.7 62.4,255.7 65.6,266 "/>
<rect x="72.6" y="255.7" class="st0" width="2.7" height="12.3"/>
<polygon class="st0" points="85.6,255.7 88.2,255.7 88.2,268.1 85.4,268.1 80.1,259.8 80.1,268.1 77.5,268.1 77.5,255.7 80.3,255.7 
	85.6,264 "/>
<path class="st0" d="M91.6,266.7c-2.2-2.8-2.2-6.7,0-9.5c1.4-1.1,3.1-1.7,4.9-1.6c0.9,0,1.8,0.1,2.6,0.3v2.2
	c-0.8-0.2-1.6-0.3-2.4-0.3c-0.8,0-1.5,0.1-2.2,0.4c-0.6,0.3-1,0.7-1.3,1.3c-0.3,0.7-0.5,1.5-0.4,2.4c0,0.8,0.1,1.6,0.4,2.4
	c0.3,0.6,0.7,1,1.3,1.3c0.7,0.3,1.4,0.4,2.2,0.4c0.9,0,1.7-0.1,2.5-0.4v2.2c-0.4,0.1-0.9,0.2-1.3,0.3c-0.5,0.1-1,0.1-1.5,0.1
	C94.6,268.4,92.9,267.8,91.6,266.7"/>
<rect x="100.7" y="255.7" class="st0" width="2.7" height="12.3"/>
<path class="st0" d="M113.9,268.1l-1-3.3h-4.6l-1,3.3h-2.7l4-12.3h4l4,12.3H113.9z M109,262.6h3.3l-1.6-5.3L109,262.6z"/>
<path class="st0" d="M122,268v-12c0.6-0.1,1.3-0.2,1.9-0.3c0.7-0.1,1.3-0.1,2-0.1c1.8-0.1,3.7,0.4,5.1,1.6c1.2,1.3,1.8,3,1.7,4.8
	c0.1,1.2-0.2,2.5-0.8,3.6c-0.6,0.9-1.4,1.6-2.4,2c-1.3,0.5-2.7,0.7-4.1,0.6C124.2,268.2,123.1,268.1,122,268 M128.2,265.6
	c0.6-0.3,1-0.7,1.3-1.3c0.3-0.8,0.5-1.6,0.4-2.4c0-0.8-0.1-1.6-0.4-2.4c-0.3-0.6-0.7-1-1.3-1.3c-0.7-0.3-1.4-0.4-2.1-0.4
	c-0.5,0-0.9,0-1.4,0.1v8c0.5,0,0.9,0.1,1.4,0.1C126.8,266,127.6,265.9,128.2,265.6"/>
<polygon class="st0" points="137.2,265.9 143.3,265.9 143.3,268.1 134.5,268.1 134.5,255.7 143.2,255.7 143.2,257.9 137.2,257.9 
	137.2,260.7 142.4,260.7 142.4,262.8 137.2,262.8 "/>
<path class="st1" d="M44.7,288.9c0.9,1.2,1.4,2.6,1.3,4.1c0.1,1.5-0.4,2.9-1.3,4.1c-1.1,1.2-2.5,2.1-4.1,2.5
	c-2.4,0.6-4.9,0.9-7.4,0.9c-1.1,0-2.3,0-3.6-0.1c-1.3-0.1-2.6-0.2-3.7-0.4v-25c1.3-0.3,2.7-0.5,4-0.6c1.4-0.2,2.8-0.2,4.2-0.2
	c3.8,0,6.6,0.6,8.3,1.8c1.8,1.2,2.8,3.3,2.6,5.4c0,1.3-0.3,2.5-1.1,3.5c-0.7,1-1.8,1.7-3,2c1.4,0.2,2.6,0.9,3.5,2 M31.6,278.6v6.3
	h3.7c1.3,0.1,2.5-0.2,3.6-0.8c0.8-0.6,1.2-1.5,1.1-2.5c0-0.7-0.1-1.3-0.5-1.9c-0.4-0.5-0.9-0.9-1.6-1.1c-0.9-0.3-1.9-0.4-2.9-0.4
	C33.9,278.3,32.7,278.4,31.6,278.6 M38.3,295.9c0.7-0.2,1.4-0.6,1.8-1.2c0.4-0.6,0.6-1.3,0.6-2c0.1-1.1-0.3-2.1-1.1-2.8
	c-1.1-0.7-2.5-1-3.8-0.9h-4.2v7c1.1,0.1,2.1,0.1,3.2,0.1C36,296.3,37.2,296.2,38.3,295.9"/>
<path class="st1" d="M51.7,297.8c-1.8-1.8-2.6-4.6-2.6-8.3v-15h5.7v15.6c-0.1,1.6,0.3,3.1,1.2,4.4c1,1,2.5,1.5,3.9,1.4
	c1.4,0.1,2.9-0.4,3.9-1.4c1-1.3,1.4-2.8,1.3-4.4v-15.6h5.6v15c0,3.7-0.9,6.5-2.6,8.3s-4.5,2.7-8.2,2.7
	C56.2,300.5,53.5,299.6,51.7,297.8"/>
<polygon class="st1" points="80.8,295.7 93.5,295.7 93.5,300.2 75.2,300.2 75.2,274.5 93.3,274.5 93.3,279 80.8,279 80.8,284.8 
	91.5,284.8 91.5,289.3 80.8,289.3 "/>
<polygon class="st1" points="113.9,274.5 119.2,274.5 119.2,300.2 113.5,300.2 102.3,283 102.3,300.2 97,300.2 97,274.5 
	102.7,274.5 113.9,291.7 "/>
<path class="st1" d="M128.7,299.1c-1.8-1-3.3-2.5-4.2-4.4c-2-4.7-2-10,0-14.7c0.9-1.9,2.4-3.4,4.2-4.4c4.1-1.9,8.8-1.9,12.9,0
	c1.8,1,3.3,2.5,4.2,4.4c2,4.7,2,10,0,14.6c-0.9,1.9-2.4,3.4-4.2,4.4C137.5,301,132.7,301,128.7,299.1 M139.8,293.9
	c1.1-1.3,1.6-3.5,1.6-6.5c0-3.1-0.5-5.3-1.6-6.7c-1.1-1.4-2.9-2.2-4.7-2.1c-1.8-0.1-3.5,0.6-4.7,2c-1.1,1.3-1.6,3.5-1.6,6.5
	c0,3.1,0.5,5.3,1.6,6.7c2.4,2.6,6.5,2.7,9.1,0.3C139.6,294.1,139.7,293.9,139.8,293.9"/>
<path class="st1" d="M153.7,300.2c-1.2-0.2-2.3-0.4-3.4-0.8v-4.6c2.3,0.7,4.7,1.1,7.2,1.1c1.2,0.1,2.5-0.2,3.6-0.8
	c1.1-0.8,1.4-2.4,0.8-3.6c-0.3-0.4-0.7-0.8-1.1-1c-0.7-0.3-1.5-0.6-2.2-0.8l-1.9-0.5c-1.9-0.4-3.7-1.3-5.1-2.7
	c-1.2-1.3-1.8-3-1.7-4.7c-0.1-2.3,0.9-4.4,2.7-5.8c1.8-1.3,4.5-2,8-2c1.1,0,2.2,0.1,3.3,0.2c1,0.1,1.9,0.3,2.8,0.5v4.6
	c-0.9-0.3-1.8-0.5-2.8-0.6c-1-0.1-2-0.2-3-0.2c-1.4-0.1-2.9,0.2-4.1,0.8c-0.8,0.4-1.3,1.3-1.3,2.2c0,0.5,0.1,0.9,0.3,1.3
	c0.2,0.4,0.6,0.7,1,0.9c0.6,0.3,1.3,0.6,2,0.7l1.9,0.5c2.1,0.4,4,1.3,5.5,2.8c1.2,1.3,1.8,3,1.8,4.8c0,1.5-0.4,3-1.2,4.2
	c-0.9,1.2-2.1,2.2-3.6,2.7c-1.8,0.7-3.7,1-5.6,1C156.3,300.5,155,300.4,153.7,300.2"/>
<path class="st1" d="M43.3,333.4l-2.1-6.9h-9.5l-2.1,6.9H24l8.3-25.7h8.3l8.3,25.7H43.3z M33,322h6.8l-3.4-11L33,322z"/>
<rect x="51.4" y="307.7" class="st1" width="5.7" height="25.7"/>
<path class="st1" d="M76.9,333.4l-6.6-9.4H70c-0.8,0-1.7,0-2.7-0.1v9.5h-5.6v-25.2c1.2-0.3,2.5-0.5,3.9-0.6c1.4-0.2,2.7-0.2,4.1-0.2
	c3.7,0,6.5,0.7,8.4,2c1.9,1.3,2.8,3.4,2.8,6.2c0.1,1.6-0.4,3.3-1.3,4.6c-1,1.3-2.3,2.3-3.8,2.8l7.3,10.4H76.9z M67.3,319.6
	c0.9,0.1,1.9,0.2,2.8,0.2c1.5,0.1,2.9-0.2,4.2-1c0.9-0.8,1.4-1.9,1.3-3.1c0.1-1.2-0.4-2.3-1.3-3.1c-1.2-0.8-2.6-1.1-4-1
	c-1,0-2,0.1-3,0.3L67.3,319.6z"/>
<polygon class="st1" points="91.2,328.9 103.9,328.9 103.9,333.4 85.7,333.4 85.7,307.7 103.7,307.7 103.7,312.2 91.2,312.2 
	91.2,318 102,318 102,322.5 91.2,322.5 "/>
<path class="st1" d="M110.2,333.5c-1.2-0.2-2.3-0.4-3.4-0.8v-4.6c2.3,0.7,4.7,1.1,7.2,1.1c1.2,0.1,2.5-0.2,3.6-0.8
	c1.1-0.8,1.4-2.4,0.8-3.6c-0.3-0.4-0.7-0.8-1.1-1c-0.7-0.3-1.5-0.6-2.2-0.8l-1.9-0.5c-1.9-0.4-3.7-1.3-5.1-2.7
	c-1.2-1.3-1.8-3-1.7-4.7c-0.1-2.3,0.9-4.4,2.7-5.8c1.8-1.3,4.5-2,8-2c1.1,0,2.2,0.1,3.3,0.2c1,0.1,1.9,0.3,2.8,0.5v4.6
	c-0.9-0.3-1.8-0.5-2.8-0.6c-1-0.1-2-0.2-3-0.2c-1.4-0.1-2.8,0.2-4.1,0.8c-0.8,0.4-1.3,1.3-1.3,2.2c0,0.5,0.1,0.9,0.3,1.3
	c0.2,0.4,0.6,0.7,1,0.9c0.6,0.3,1.3,0.6,2,0.7l1.9,0.5c2.1,0.4,4,1.3,5.5,2.7c1.2,1.3,1.8,3,1.8,4.8c0,1.5-0.4,3-1.2,4.2
	c-0.9,1.2-2.1,2.2-3.6,2.7c-1.8,0.7-3.7,1-5.6,1C112.7,333.7,111.5,333.6,110.2,333.5"/>
<rect x="59.8" y="55.9" class="st1" width="1.7" height="6.8"/>
<rect x="64.1" y="55.9" class="st1" width="1.7" height="6.8"/>
<path class="st1" d="M64.5,52.8H57c-0.5,0-0.9,0.4-0.9,0.9V55h-3.8c-1.3,0-2.4,1.1-2.4,2.4l-0.3,4.1l-0.9,0.9
	c-0.4,0.5-0.6,1.1-0.6,1.8v4.4c0,0.5,0.4,0.9,0.9,0.9h0.7c0.5,1.7,2.3,2.6,3.9,2.1c1.7-0.5,2.6-2.3,2.1-3.9
	c-0.5-1.7-2.3-2.6-3.9-2.1c-0.8,0.2-1.5,0.8-1.9,1.6v-1.4h0.4c0.5-0.1,0.9-0.5,0.8-1c0-0.4-0.4-0.8-0.8-0.8h-0.3
	c0-0.1,0-0.2,0.1-0.3l0.8-0.8H56v5.8c0,0.5,0.4,0.9,0.9,0.9h1.1c0.9-0.7,1.9-1.3,2.9-1.8l0,0h-3.1v-1.9h7.3c2.2-0.8,4.5-1.4,6.8-1.8
	H57.9v-9.3h9.5C66.5,54,65.5,53.3,64.5,52.8 M52.7,67.2c0.7,0,1.3,0.6,1.3,1.3c0,0.7-0.6,1.3-1.3,1.3c-0.7,0-1.3-0.6-1.3-1.3l0,0
	C51.4,67.8,52,67.2,52.7,67.2 M56,60.9h-4.6l0.3-3.5l0,0c0-0.3,0.2-0.6,0.6-0.6H56V60.9z"/>
<path class="st1" d="M69.4,55.9h-1.1v6.8H70v-6.3L69.4,55.9"/>
<path class="st1" d="M72.5,58.2v4.5h1.7v-3.2L72.5,58.2"/>
<path class="st1" d="M27.4,84.3v-7.6l4.5,4.5l1.8-0.8V58.9l4.7-2.5c-0.5,1-0.9,2.1-1.2,3.3c-0.7,3.8,0,7.8,2,11.1l0,0
	c0.1,1.4,0.6,2.7,1.5,3.7l0.6,0.7c0.3,0.3,0.8,0.3,1.1,0.1c0,0,0,0,0.1-0.1l0.6-0.5l1.1,1.2c0.3,0.3,0.7,0.4,1.1,0.1
	c0,0,0,0,0.1-0.1c0.7-0.6,1.7-0.5,2.2,0.2c0.6,0.7,0.5,1.7-0.2,2.2c-0.7,0.6-1.6,0.5-2.2-0.1c-0.3-0.3-0.8-0.4-1.2,0
	c-0.3,0.3-0.4,0.8,0,1.2c1.2,1.4,3.2,1.5,4.6,0.4c1.4-1.2,1.5-3.2,0.4-4.6c-1-1.1-2.6-1.5-4-0.8l-0.6-0.7l0.6-0.5
	c0.3-0.3,0.3-0.8,0.1-1.1c0,0,0,0-0.1-0.1l-0.6-0.7c-0.8-0.9-1.8-1.5-3-1.8l0.1-0.1C41.2,69,35.7,60,45,52.8l2.7-1.4l-0.5-2
	l-13.5,0.2v-3.2l-1.1-1.1h-6.3l-1.1,1.1v39.4l1.3-0.9L27.4,84.3z M43.2,72.3l0.1,0.1l-1.2,1.1L42,73.4c-0.6-0.7-1-1.6-1.2-2.5
	C41.8,71.1,42.6,71.6,43.2,72.3 M42.3,51.6c-0.3,0.3-0.6,0.5-0.9,0.8l-2.6,1.4l-2.9-2.1L42.3,51.6z M33.7,52.7l3,2.2l-3,1.6V52.7z
	 M31.6,78l-3.8-3.7l3.8-3.6V78z M31.6,66.1L28,63.4l3.5-2.9L31.6,66.1z M31.6,50.6v5.5l-3.7-3l3.7-3.6V50.6z M27.4,47.5h3.2
	l-3.2,3.1V47.5z M27.4,55.4l3.6,2.9l-3.6,2.9L27.4,55.4z M27.4,65.6l3.6,2.7l-3.6,3.5V65.6z"/>
<path class="st1" d="M40.7,112.2c3.1-0.2,5.4-2.8,5.3-5.8c-0.1-2.6-2-4.7-4.5-5.2c-3-0.5-5.9,1.6-6.4,4.6c-0.5,3,1.6,5.9,4.6,6.4
	c0.1,0,0.2,0,0.3,0C40.2,112.2,40.5,112.2,40.7,112.2 M39,107.9c-0.7-0.9-0.5-2.2,0.4-3c0.4-0.3,0.8-0.4,1.3-0.4h0.3
	c1.2,0.2,2,1.2,1.8,2.4c0,0,0,0,0,0c-0.1,0.6-0.4,1.1-0.8,1.4c-0.4,0.3-1,0.5-1.5,0.4l0,0C39.8,108.6,39.3,108.4,39,107.9"/>
<path class="st1" d="M167.1,109.8l-0.5,0.5c-0.4,0.5-1.5,1.5-2.1,2l-0.3,0.3c-0.6,0.5-1.3,0.8-2,1c-1.8,0.6-3.1,2.2-3.5,4.1
	c-0.3-0.9-0.4-1.8-0.3-2.7c0.3-1.8,1.1-3.4,2.1-4.9c0.2-0.4,0.5-0.8,0.7-1.2c0.3-0.5,0.1-1.1-0.4-1.4c-0.2-0.1-0.4-0.2-0.6-0.1
	c-2.1,0.3-4.2,1.1-6,2.3c0.5-1.2,1.2-2.3,2.1-3.2l0.4-0.4c0.4-0.4,0.3-1-0.1-1.4c-0.3-0.3-0.8-0.3-1.1-0.1c-1.4,0.7-2.7,1.4-4.1,2.1
	c-1.1,0.5-2.3,1-3.5,1.4c-0.9,0.3-1.7,0.8-2.5,1.3c0.2-0.4,0.4-0.8,0.7-1.2c0.6-0.7,1.2-1.4,1.9-2c0.3-0.3,0.7-0.6,1-1
	c1.4-1.3,2.6-2.9,3.6-4.5c0.3-0.5,0.1-1.1-0.3-1.4c-0.1,0-0.1-0.1-0.2-0.1c-1-0.3-2.1-0.5-3.2-0.4c-0.5,0.1-1,0.2-1.3,0.6l-0.1,0.1
	l-0.1,0.1l0.1-0.2c0.2-0.7,0.6-1.3,1.2-1.7c0.1-0.1,0.1-0.1,0.2-0.2c0.4-0.4,0.4-1.1-0.1-1.6c-0.2-0.2-0.5-0.3-0.7-0.3
	c-0.1,0-0.2,0-0.4,0c-0.8,0.2-1.6,0.3-2.4,0.1c-1.7-0.3-3.4-0.4-5.1-0.1l0.2-0.2c1.2-1,2.6-1.7,4.1-2c1-0.3,2-0.7,2.9-1.3l0.9-0.5
	c0.5-0.2,0.8-0.6,0.8-1.2c0-0.5-0.3-1-0.8-1.2c-0.9-0.4-1.8-0.6-2.8-0.4c0.5-0.3,0.9-0.7,1.2-1.1c0.3-0.4,0.8-0.6,1.7-0.9h0.1
	c0.5-0.2,0.8-0.8,0.6-1.3c-0.1-0.1-0.1-0.3-0.2-0.4l-0.5-0.3c-0.3-0.2-0.6-0.4-0.8-0.6c-1.1-0.7-2-1.8-2.6-3
	c-0.4-0.8-1.1-1.4-1.9-1.8c-0.6-0.3-1.2-0.5-1.8-0.7c1.3-0.3,2.6-0.2,3.8,0.3c1.7,0.6,3.3,1.4,4.8,2.3l0,0c0.3,0.3,0.7,0.4,1.1,0.3
	c0.4-0.1,0.7-0.4,0.8-0.8c0.3-2.2-0.4-4.4-1.9-6c1.5,0.5,2.9,1.1,4.1,2c0.5,0.3,1.1,0.2,1.4-0.3c0.2-0.3,0.2-0.8,0-1.1
	c-0.3-0.4-0.5-0.8-0.6-1.2c-0.1-0.2-0.1-0.4-0.3-0.7c-0.1-0.5-0.2-1-0.1-1.4c0-0.3,0-0.5,0-0.8c0.1-1,0.4-2,0.9-2.9l-1.6-1.3
	c-0.7,1.3-1.2,2.7-1.3,4.2c0,0.2,0,0.4,0,0.7c-0.1,0.6-0.1,1.1,0,1.7c-1.7-0.8-3.5-1.2-5.4-1.2c-0.6,0-1,0.4-1,1
	c0,0.3,0.1,0.6,0.3,0.7c1.7,1.6,3.1,2.9,3.4,4.8c-1.3-0.7-2.6-1.3-4-1.9c-3.2-1.2-6.1-0.3-8.8,0.9c-0.5,0.2-0.7,0.8-0.5,1.3
	c0.1,0.2,0.3,0.4,0.5,0.5c0.3,0.1,0.6,0.2,0.9,0.2c1.5,0.1,2.9,0.5,4.3,1.1c0.4,0.1,0.8,0.4,1,0.8c0.7,1.4,1.7,2.7,3,3.6
	c-0.4,0.3-0.7,0.6-1,1c-0.4,0.5-1,0.8-1.6,0.6c-0.5-0.2-1,0-1.3,0.5c-0.3,0.4-0.3,1,0.1,1.4l0,0c0.6,1.2,1.9,1.8,3.2,1.7
	c-0.5,0.2-1,0.4-1.5,0.6c-1.9,0.4-3.6,1.2-5,2.5c-0.4,0.3-0.8,0.5-1.3,0.5h-0.1c-0.6-0.2-1.3,0.2-1.5,0.8c-0.2,0.7,0,1.4,0.6,1.8
	c0.4,0.4,0.9,0.7,1.5,0.7c0.6,0,1.1,0,1.7-0.1c1.6-0.3,3.3-0.3,4.9,0c0.4,0.1,0.7,0.1,1.1,0.2c-0.2,0.3-0.3,0.6-0.4,0.9
	c-0.3,0.9-0.6,1.3-1.2,1.5c-0.5,0.1-0.8,0.5-0.9,1c-0.1,0.5,0.2,1,0.6,1.3c0.7,0.5,1.6,0.5,2.3,0.1c0.7-0.3,1.3-0.7,1.9-1.2l0.4-0.3
	l0.1-0.1l0.3-0.2c0.4,0,0.7,0,1.1,0c-0.7,1-1.6,2-2.5,2.9c-0.3,0.3-0.6,0.6-1,0.9c-0.8,0.7-1.5,1.4-2.1,2.2c-1,1.3-1.6,2.8-1.6,4.5
	c0,0.6,0.4,1,1,1c0.1,0,0.1,0,0.2,0c0.4-0.1,0.7-0.2,1-0.4l0.2-0.1c1-0.7,2.1-1.4,3.3-1.9c1.2-0.4,2.4-0.9,3.6-1.5l0.4-0.2
	c-0.5,1.1-0.7,2.3-0.5,3.5c0.1,0.5,0.6,0.9,1.1,0.8c0.1,0,0.3-0.1,0.4-0.2c1.4-1,2.9-1.9,4.6-2.5c-1,1.4-1.6,3.1-1.9,4.8
	c-0.3,2.3,1.1,6.6,2.3,7.5c0.4,0.4,1.1,0.3,1.4-0.1c0.1-0.2,0.2-0.4,0.2-0.6c0.1-1,0.1-2,0.3-3c0.1-1.4,1-2.6,2.3-3
	c1-0.3,1.9-0.8,2.6-1.4l0.3-0.2c0.4-0.3,0.8-0.7,1.2-1.2c0.2-0.2,0.4-0.4,0.5-0.5C167.5,111.3,167.3,110.6,167.1,109.8"/>
<rect x="78.6" y="35.1" class="st1" width="2.2" height="2.2"/>
<rect x="86.8" y="35.1" class="st1" width="2.2" height="2.2"/>
<path class="st1" d="M76.3,32.4l6.6-4.8v4.3c0,0.3,0.1,0.5,0.4,0.7l0,0v0.1c0.3,0.2,0.7,0.2,1,0l0.3-0.2l0,0l6.6-4.8v4.3
	c0,0.3,0.1,0.5,0.3,0.7l0,0v0.1c0.3,0.2,0.7,0.2,1,0l0.3-0.2l0,0l6.6-4.8v2.2h1.7v-3.9c0-0.3-0.1-0.5-0.4-0.7l0,0l0,0
	c-0.3-0.2-0.7-0.2-1,0l-0.3,0.2l0,0l-6.6,4.8v-4.3c0-0.3-0.1-0.5-0.3-0.7l0,0l0,0c-0.3-0.2-0.7-0.2-1,0l-0.3,0.2l0,0l-6.6,4.8v-4.3
	c0-0.3-0.1-0.5-0.4-0.7l0,0l0,0c-0.3-0.2-0.7-0.2-1,0l-8.3,6c-0.2,0.2-0.4,0.4-0.4,0.7v9.6c0.6,0.4,1.1,0.8,1.7,1.2L76.3,32.4z"/>
<path class="st1" d="M68.3,47.5l0.9,0.5l1.1-1.9l-0.9-0.5c-1-0.6-2-1.1-3-1.6l-1-0.5l-0.9,2l1,0.5C66.4,46.5,67.3,47.1,68.3,47.5"/>
<path class="st1" d="M107.8,63.9l1.1-0.2l-0.4-2.1l-1.1,0.2c-1,0.2-2.1,0.3-3.1,0.4l-1.1,0.1l0.2,2.2l1.1-0.1
	C105.6,64.3,106.7,64.2,107.8,63.9"/>
<path class="st1" d="M83.4,58.1l1.2-1.8l-2.5-1.7l-1-0.7l-0.9-0.6L78.9,55l0.9,0.6l1.1,0.8L83.4,58.1z"/>
<path class="st1" d="M73.9,51.3l1.5,1.1l0.9,0.6l1.3-1.8l-0.9-0.6l-1.4-1.1L74,48.7l-0.9-0.6l-1.3,1.8l0.9,0.6L73.9,51.3"/>
<path class="st1" d="M99.9,64.5l0.2-2.2L99,62.2c-1-0.1-2-0.3-3-0.5l-1.1-0.3l-0.5,2.1l1.1,0.3c1.1,0.3,2.2,0.5,3.4,0.6L99.9,64.5z"
	/>
<path class="st1" d="M91.1,62.5l0.9-2L91,60c-1-0.4-1.9-0.9-2.8-1.4L87.2,58L86.2,60l0.9,0.5c1,0.5,2,1,3,1.5L91.1,62.5z"/>
<path class="st1" d="M153.7,93.2c1.6,8.7,10,13.6,10.6,14c0.8,0.4,1.5,0.8,2.3,1.2c-0.7-1.1-1.2-2.3-1.6-3.6
	c-1.7-1.1-7.7-5.4-8.9-12c-0.8-4.4,0.7-9,4.4-13.8c0-0.3,0.1-0.7,0.1-1c0-0.8-0.1-1.6-0.3-2.4c-0.4,0.4-0.6,0.6-0.7,0.7l0,0
	C154.7,82,152.8,87.7,153.7,93.2"/>
<path class="st1" d="M146.2,148l-0.4-0.1c-1.2-1.5-2.3-3.1-3.3-4.7c-1.5-2.3-3.2-4.9-4.7-6.8c1.1-0.8,1.6-2.3,1.4-4.1
	c0,0-0.4-4.4-2.3-4.6c-0.6-0.1-1.2,0.3-1.4,0.9v0.1c-0.3,1.3-1,2.5-2,3.4c-0.3-0.2-0.7-0.3-1-0.4c0.9-1.7,0.7-3.8-0.5-5.3l0,0
	c-0.2-0.4-0.6-0.6-1.1-0.6c-0.4,0-0.8,0.2-1,0.6c-0.1,0.2-0.2,0.5-0.3,0.7c-0.4,1.2-1.4,2.2-2.6,2.7c-1.5,0.7-2.6,2.1-2.9,3.7
	c-0.6-0.4-1.3-0.6-2-0.8c-1.2-0.2-2.4,0-3.4,0.8c-0.6,0.4-1,1-1.1,1.8c0.1,1,0.6,1.9,1.4,2.5c-1,0.2-1.9,0.3-2.9,0.4
	c-0.5,0.9-1.1,1.7-1.8,2.4c2.6-0.2,5.1-0.6,7.6-1.2c0.6-0.2,0.9-0.8,0.8-1.4c-0.1-0.3-0.2-0.5-0.5-0.6c-0.9-0.5-1.7-1.2-2.4-1.9
	c0.5-0.4,1.1-0.6,1.8-0.5c1.1,0.3,2.1,0.9,2.9,1.8v0.1c0.1,0.6,0.8,1,1.4,0.8c0.6-0.1,1-0.8,0.8-1.4c0-0.1-0.1-0.3-0.2-0.4
	c-1.1-2.9,0.7-3.8,1.3-4c1.1-0.5,2-1.2,2.8-2.1c-0.2,1.1-0.8,2.1-1.8,2.8c-0.5,0.4-0.6,1.1-0.2,1.6c0.4,0.5,1.1,0.6,1.6,0.2l0,0
	c0.7-0.5,1.6-0.6,2.3-0.1c0.4,0.3,0.9,0.4,1.3,0.2c1.3-0.6,2.2-1.7,2.8-3c0.2,0.9,0.3,1.8,0.1,2.7c-0.1,0.4-0.3,0.7-0.7,0.9
	c-0.5,0.1-0.9,0.5-1.1,1c-0.1,0.4,0,0.8,0.3,1.1c1.9,2.4,3.7,4.9,5.3,7.5c2.4,3.7,3.4,5.1,4.1,5.5c0.3,0.2,0.7,0.3,1.1,0.3l0.5,0.1
	c0.1,1.1-0.1,2.2-0.6,3.1h-0.1c-0.2,0.1-0.5,0.2-0.6,0.4c-0.6,0.8-1.2,1.6-1.9,2.3c-0.7,0.6-1.6,0.3-2.9-0.4c-0.5-0.3-1-0.5-1.6-0.6
	c-2.7-0.8-5.5-0.9-8.3-0.3c-1.6,0.3-3.1,0.9-4.6,1.6c-1.8,0.9-2.8,5-3.2,6.8c-0.1,0.6,0.3,1.2,0.9,1.3c0,0,0,0,0,0h0.2
	c0.5,0,1-0.4,1.1-0.9c0.5-2.4,1.4-4.9,2-5.2c1.3-0.7,2.6-1.1,4.1-1.4c2.4-0.5,4.9-0.3,7.3,0.3c0.4,0.1,0.8,0.3,1.1,0.5
	c1.4,0.7,3.5,1.7,5.4,0.1c0.7-0.7,1.4-1.5,2-2.4l0.2-0.1c0.3-0.1,0.6-0.3,0.7-0.5c0.2-0.4,2.1-3.9,0.6-6c-0.3-0.5-1-0.7-1.8-0.8"/>
<path class="st1" d="M150.4,123.6c-3.3,0-6.5,1.4-8.7,3.9h-0.1v0.1c-0.2,0.3-0.5,0.6-0.7,0.9l0.4,1c2.7,0.4,5.5,3.3,5.6,3.3l0.4,0.4
	l0.6-0.2c0.7-0.1,1.5,0,2.1,0.3l-3,5.6h-1.2h-0.7c-0.6,0-1.1,0-1.7,0s-1.3,0-2,0l2.1,2.7c1.1,0,2.9,0,3.8,0.1h0.3c1,0.1,2,0.2,3,0.3
	c2.4,0.3,4.7,0.9,7,1.6c0.5-0.8,1.1-1.6,1.6-2.3c-3.3-1.1-6.6-1.9-10.1-2.2l2.6-4.8c0.5,0.3,0.8,0.8,1.1,1.3l0.3,1l0.9-0.3
	c0.9-0.3,2.6,0.4,4.3,2l0,0h0.1c0.3,0.3,0.5,0.5,0.7,0.8l0.9,0.2c1-1.6,1.6-3.4,1.6-5.3C161.6,128.3,156.6,123.7,150.4,123.6
	 M159.3,136.5c-1.3-1.3-3-2.1-4.9-2.1c-1.5-2.1-3.9-3.3-6.4-3.3c-1.2-1.2-2.6-2.1-4.1-2.9c1.8-1.7,4.2-2.6,6.6-2.6
	c5.1,0,9.2,3.8,9.2,8.4C159.7,134.8,159.6,135.6,159.3,136.5"/>
<path class="st1" d="M123.2,152.2c0.6-0.3,1.3-0.4,1.9-0.2c0.7,0.2,1.4-0.2,1.6-0.9c0.1-0.3,0.1-0.6-0.1-0.8
	c-0.3-0.7-0.7-1.3-1.3-1.7c-0.7-0.5-1.6-0.7-2.4-0.6c-1.9-2.2-4.3-4-6-4.2c-0.5-0.1-1.1-0.2-1.7-0.1c-1.8,0.1-3.5,0.8-4.9,1.9
	c-1.4,1.2-2.5,2.8-3,4.6l0,0c-0.2,0.7-0.4,1.4-0.4,2.1c-0.1,1.9,0.2,3.8,1,5.5l0.4,0.9c0.9,1.8,2.1,3.3,3.7,4.5
	c0.7,0.6,1.6,0.9,2.5,1c0.3,0,0.6,0,0.8-0.1c1.3-0.5,1.9-2.4,1.5-5.3l0,0c-0.1-1.3-0.4-2.5-0.7-3.7c-0.2-0.7-0.3-1.3-0.4-2
	c0,0-0.3-2.7,1-3.1c0.9-0.4,2-0.1,2.6,0.7c-0.1,0.3-0.2,0.7-0.3,1c-0.2,1.2,0.2,2.4,1,3.2c0.5,0.5,1.3,0.6,1.8,0.1
	c0.3-0.3,0.4-0.6,0.4-1C122.2,153.2,122.6,152.5,123.2,152.2 M114.8,162.4c-0.3,0.1-0.9-0.1-1.6-0.6c-1.2-1-2.2-2.2-2.9-3.5
	c1.2-1.3,2.9-1.9,4.7-1.6c0.2,0.8,0.3,2,0.3,2.3l0,0C115.4,160.1,115.3,161.3,114.8,162.4 M110.8,154c0.2-0.1,0.4-0.2,0.7-0.3
	c0.2,0,0.5,0,0.7,0c0.1,0.5,0,1-0.1,1.5l-0.5,0.2C111.3,155,111,154.5,110.8,154 M120.8,152.4c0-0.5,0.1-1,0.3-1.4
	c0.2-0.2,0.2-0.6,0.1-0.8c-0.4-0.8-1-1.5-1.9-1.9c-1-0.4-2.1-0.5-3.1-0.1c-0.8,0.2-1.4,0.7-1.8,1.4c-0.6,1.2-0.7,3-0.2,5.2h-0.5
	c0.1-0.6,0-1.2-0.1-1.9c-0.1-0.4-0.4-0.7-0.7-0.9c-1.3-0.5-2.9-0.1-3.8,1c-0.6,0.8,0.1,1.8,0.3,2.2c0.1,0.1,0.2,0.3,0.3,0.5l0.2,0.4
	c-0.3,0.2-0.5,0.3-0.7,0.5c-0.6-1.3-0.8-2.8-0.7-4.3l0,0c0.1-0.5,0.1-0.9,0.3-1.4v-0.2v-0.1c0.4-1.5,1.3-2.9,2.4-3.9
	c1.1-0.9,2.5-1.4,3.9-1.6c2.3-0.3,5.4,2.8,6.4,4.1c0.2,0.3,0.5,0.4,0.8,0.4c0.7-0.1,1.4,0,1.9,0.4l0,0c-0.7,0-1.4,0.2-2.1,0.5
	C121.6,151.1,121,151.7,120.8,152.4"/>
<path class="st1" d="M113.4,159.1c-0.5-0.3-1.2-0.2-1.5,0.3c-0.3,0.5-0.2,1.2,0.3,1.5c0.2,0.1,0.5,0.2,0.7,0.2c0.1,0,0.2,0,0.3,0
	c0.6-0.2,0.9-0.8,0.8-1.4C113.8,159.4,113.6,159.2,113.4,159.1"/>
<rect x="89.8" y="45.2" class="st1" width="5.9" height="2.2"/>
<rect x="89.8" y="48.8" class="st1" width="5.9" height="2.2"/>
<path class="st1" d="M106.5,35.4h-2.3c-0.2,0-0.3,0.1-0.3,0.3c0,0,0,0,0,0v2h-2c-0.2,0-0.3,0.1-0.3,0.3c0,0,0,0,0,0v2.3
	c0,0.2,0.1,0.3,0.3,0.3l0,0h2v2c0,0.2,0.1,0.3,0.3,0.3l0,0h2.3c0.2,0,0.3-0.1,0.3-0.3c0,0,0,0,0,0v-2h2c0.2,0,0.3-0.1,0.3-0.3
	c0,0,0,0,0,0V38c0-0.2-0.1-0.3-0.3-0.3l0,0h-2v-2C106.8,35.5,106.7,35.4,106.5,35.4L106.5,35.4"/>
<path class="st1" d="M108.5,54.7V50h1.3v-1.2H101V50h1.3v5.8c0.4,0,0.8,0,1.3-0.1V50h3.8v5L108.5,54.7"/>
<path class="st1" d="M97.1,31.9v9.7h-9.7c-0.5,0-0.9,0.4-0.9,0.9l0,0v7.8c0.6,0.4,1.2,0.8,1.9,1.2v-8.1h8.8v11.9
	c0.6,0.1,1.2,0.2,1.9,0.3V32.8h12.8v19.9l1.9-1.4v-7.9h8.8v3.8l0.4,0.3c0.4-0.5,0.9-0.8,1.5-0.9v-4.1c0-0.5-0.4-0.9-0.9-0.9l0,0
	h-9.7v-9.7c0-0.5-0.4-0.9-0.9-0.9l0,0H98C97.5,30.9,97.1,31.4,97.1,31.9C97.1,31.9,97.1,31.9,97.1,31.9"/>
<path class="st1" d="M104.4,119.2l-0.1,7c0.4,0,0.7,0.1,1.1,0.2c0.4,0.1,0.7,0.2,1.1,0.4l3.2-6.2
	C108.3,119.2,106.3,118.7,104.4,119.2"/>
<path class="st1" d="M102.7,126.4l-2.1-6.6c-1.9,0-3.7,1.1-4.6,2.8l4.8,5C101.4,127,102,126.6,102.7,126.4"/>
<path class="st1" d="M92.3,130.9l7,0.1c0-0.8,0.2-1.5,0.5-2.2l-6.2-3.2C92.3,127.1,91.8,129.1,92.3,130.9"/>
<path class="st1" d="M95.6,139.4l5.1-4.9c-0.5-0.5-0.9-1.2-1.1-1.9l-6.7,2.1C92.9,136.7,93.9,138.5,95.6,139.4"/>
<path class="st1" d="M98.8,141.8L98.8,141.8L98.8,141.8L98.8,141.8L98.8,141.8L99,142l0,0l0.1,0.1l0,0l0.2,0.1l0,0l0.2,0.1l0,0
	l0.2,0.1l0,0l0.2,0.1l0,0l0.2,0.1h0.1l0.3,0.1h0.1l0.3,0.1l0,0l0.3,0.1h0.1l0.3,0.1h0.1h0.4l0,0h0.4h0.4h0.3h0.1h0.3h0.1l0.4-0.1
	l0,0v-0.2l0.1-6.9c-0.4,0-0.8-0.1-1.1-0.1c-0.3-0.1-0.7-0.2-1-0.4l-2.7,5.2l-0.5,1l0,0"/>
<path class="st1" d="M112.5,139.7l-4.9-5.1c-0.5,0.5-1.2,0.9-1.9,1.1l2.2,6.7C109.8,142.5,111.6,141.4,112.5,139.7"/>
<path class="st1" d="M116.1,131.4l-7-0.1c0,0.7-0.2,1.5-0.6,2.1l6.3,3.2C116.2,135.2,116.7,133.2,116.1,131.4"/>
<path class="st1" d="M115.6,127.5c0-1.9-1.1-3.7-2.8-4.6l-5,4.9c0.5,0.5,0.9,1.2,1.1,1.9L115.6,127.5z"/>
<path class="st1" d="M107.8,131.1c0-2-1.6-3.5-3.5-3.5c-2,0-3.5,1.6-3.5,3.5c0,2,1.6,3.5,3.5,3.5h0
	C106.2,134.6,107.8,133.1,107.8,131.1"/>
<rect x="104.5" y="92.1" class="st1" width="2.2" height="2.2"/>
<rect x="104.5" y="95.7" class="st1" width="2.2" height="2.2"/>
<rect x="127.9" y="92.1" class="st1" width="2.2" height="2.2"/>
<rect x="127.9" y="95.7" class="st1" width="2.2" height="2.2"/>
<rect x="132.7" y="60.3" class="st1" width="2.2" height="2.2"/>
<rect x="119.6" y="53.5" class="st1" width="2.2" height="2.2"/>
<path class="st1" d="M47.8,121.9c7.2,1.6,14.7,5.5,18.6,10.1l2.5-0.9c-4.2-5.3-12.5-9.8-20.6-11.6c-7.7-1.9-15.9-1.2-23.1,1.9v2.8
	C32.2,120.4,40.9,120.1,47.8,121.9"/>
<path class="st1" d="M51,117.7L51,117.7c7.5,1.7,16.6,7.4,20.4,12.3l2.4-0.9l-0.1-0.1c-3.7-5-12.5-10.9-20.4-13.2
	c0.5-0.3,1.3-0.7,1.4-0.9c0.4-0.3,0.7-0.6,1.1-0.9c7.6,2.2,16.9,9,20.3,14v0.1l2.4-0.8l-0.4-0.6c-0.9-1.3-1.9-2.4-3-3.5
	c0.6-0.4,2.1-1.5,2.6-1.7c5.8-3.4,21.2-8,29-6l0.4,0.3c2.5,1.7,5.5,2.7,8.6,2.9h0.5c0.5,0,1,0,1.5,0c1.6-0.1,3.2-0.4,4.7-1l0.4-0.2
	c1.4-0.6,3-0.7,4.4-0.3c0.7,0.2,1.4,0.6,1.9,1.1l0.2,0.2l0.8,0.6c2.6,1.9,5.4,3.9,8.8,4.2c2.1,0.2,4.2,0,6.3-0.4
	c0.4-0.1,0.7-0.2,1-0.3c1.2-0.3,2.2-1.1,3.4-1.2c1.8-0.2,4.3-0.6,6.3,0.1c-0.5-0.9-0.8-1.8-1-2.8c-1.5-0.1-0.1,0-1.7-0.1
	c-2.4-0.2-4.8,0.2-7,1.1c0,0-0.5,0.2-1.1,0.3c-1.4,0.4-2.9,0.6-4.4,0.7h-0.3c-2.7-0.3-5.4-1.3-7.6-2.9l-0.5-0.4
	c-0.8-0.6-1.6-1.3-2.4-1.8c-0.4-0.3-0.9-0.5-1.4-0.7c-2.2-0.8-4.7-0.8-6.9,0.2c-1.8,0.7-3.7,1-5.6,0.9c-3.9-0.1-8.4-3.3-8.4-3.3
	c-2.9-2.5-6.3-4.4-9.8-5.8l0,0l0,0c3.6-2,7.4-3.4,11.4-4.2c0.7-0.1,1.5-0.3,2.2-0.4c0.9-0.1,1.7-0.2,2.6-0.3c1.1-0.1,5-0.1,5-0.1
	c1.1,0,2.2,0,3.3,0.1c7,0.4,13.7,2.7,19.5,6.8c0.3-1,0.8-1.8,1.6-2.5c-3-2.1-6.3-3.7-9.7-4.7l-0.1-12.3c0-0.3-0.1-0.6-0.3-0.8
	c-0.2-0.2-0.5-0.3-0.8-0.3h-5.8v-0.6c0-0.4-0.2-0.7-0.5-0.9l-7.6-4.8v-1.1h5.8c0.6,0,1.1-0.5,1.1-1.1c0,0,0,0,0,0v-3.5
	c0-0.6-0.5-1.1-1.1-1.1c0,0,0,0,0,0l0,0h-6.9c-0.6,0-1.1,0.5-1.1,1.1c0,0,0,0,0,0v5.8l-7.6,4.9c-0.3,0.2-0.5,0.6-0.5,0.9v0.6h-5.8
	c-0.6,0-1.1,0.5-1.1,1.1c0,0,0,0,0,0l0.1,12.7l-0.4,0.2c-0.6,0.2-1.2,0.5-1.7,0.7l-0.4,0.2c-0.8-1-1.5-2.1-2.1-3.2
	c-0.4-0.8-0.7-1.7-0.9-2.6c-0.4-1.9-0.4-3.8,0.2-5.6c0-0.1,0.9-3,0.9-3c-1.2-0.1-2.3-0.2-3.5-0.3c0-0.5,0-0.9,0-1.4s0-0.7,0.1-1.1
	c0-0.2,0-0.3,0.1-0.5v-0.2c0-0.1,0-0.2,0.1-0.3c0.1-0.4,0.1-0.7,0.3-1.1c0-0.2,0.1-0.3,0.2-0.4l0.1-0.2L94,83c0.2-0.3,0.4-0.7,0.6-1
	l0.2-0.3l0.1-0.2l0.4-0.4c0.2-0.3,0.5-0.5,0.8-0.8l0.3-0.3l0.1-0.1l0.1-0.1c0.3-0.2,0.5-0.4,0.8-0.5l0.4-0.2l0.2-0.1l0.2-0.1
	c0.5-0.2,1.1-0.4,1.6-0.5c0.1,0,0.2-0.1,0.3-0.1h0.1h0.2c0.3,0,0.6,0,0.8,0c0.3,0,0.6,0,0.8,0h0.4c0.1,0,0.1,0,0.2,0h0.1
	c0.7,0.1,1.3,0.3,2,0.5l0.4,0.2c0,0,0.1,0,0.2,0.1l-0.1-0.1l0.1,0.1l0.6,0.3c0.4,0.2,0.7,0.4,1.1,0.5c2.1,0.7,4.4-0.1,6.6-0.5
	l1.2-0.2v-2.2l-0.9,0.2c-0.9,0.2-1.7,0.3-2.6,0.5l-0.8,0.2h-0.3h-0.2l-0.5,0.1c-0.4,0-0.7,0-1.1,0h-0.3l0,0l-0.4-0.1l-0.3-0.1l0,0
	l-0.5-0.3c-0.5-0.3-1-0.5-1.5-0.7c-1.3-0.5-2.6-0.7-4-0.7c-2.8-0.1-5.5,1-7.5,2.9c-1.3,1.3-2.3,2.9-2.7,4.7c-0.3,1.5-0.4,3-0.4,4.5
	c-0.9,0-2,0-3,0.1c0-2.4,0.4-4.7,1.1-6.9c0.2-0.5,0.4-1.1,0.7-1.6c0.1-0.3,0.3-0.5,0.5-0.8l0.2-0.3l0.1-0.2l0.1-0.1
	c0.4-0.4,0.7-0.8,1.2-1.2l0.3-0.3l0.2-0.1l0,0c0.2-0.2,0.5-0.3,0.7-0.5c0.5-0.3,1-0.6,1.5-0.8l0.3-0.2l0.2-0.1
	c0.3-0.1,0.6-0.2,0.9-0.3c1.1-0.3,2.3-0.6,3.4-0.7c1.3-0.2,2.5-0.7,3.6-1.4c0.9-0.8,1.6-1.8,2.5-2.5c0.2-0.2,0.4-0.3,0.6-0.5
	c0.3-0.2,0.5-0.3,0.8-0.5s0.6-0.3,0.9-0.4l0.2-0.1l0,0h0.1l0.5-0.2c1.1-0.4,2.2-0.7,3.3-1l0.4-0.1c2-0.4,4-0.6,6.1-0.5
	c4.1,0.3,8.2,0.9,12.2,2c3.6,1,7.3,1.6,11.1,2c0.4,0,0.7,0,1.1,0c4,0,7.8-1.4,10.9-4l-1.7-1.4c-2.5,2-5.7,3.2-8.9,3.3v-7.4
	c0-0.3-0.1-0.5-0.4-0.7l-1.6-1.2v-4.1c0-0.5-0.4-0.9-0.9-0.9l0,0h-2.5c-0.5,0-0.9,0.4-0.9,0.9l0,0v1l-2.4-1.7c-0.3-0.2-0.7-0.2-1,0
	l-3.3,2.3v-2.3c0-0.3-0.1-0.5-0.4-0.7L128,53v-4.1c0-0.5-0.4-0.9-0.9-0.9l0,0h-2.5c-0.5,0-0.9,0.4-0.9,0.9l0,0v1l-2.4-1.7
	c-0.3-0.2-0.7-0.2-1,0l-8.3,6c-0.2,0.1-0.3,0.3-0.3,0.6c-6.1,2.3-11.3,2.7-15.9,1.4c-5.7-1.6-10.7-5.1-15.2-8.6l-0.2-0.2
	c-4.1-3.2-7.9-6.2-12.5-8.4c-0.6,0.6-1.2,1.1-1.8,1.5l0,0c4.6,2.1,8.7,5.2,12.6,8.2c4.9,3.7,10,7.6,16.1,9.5
	c4.9,1.5,10.6,1.1,16.9-1.1v5.9l1.7-0.6v-7l7.4-5.4l3.2,2.3c0.4,0.3,0.9,0.2,1.2-0.2c0.1-0.1,0.2-0.3,0.2-0.5v-1.8h0.9v3.7
	c0,0.3,0.1,0.5,0.3,0.7l1.7,1.2v3.1l-3.3,2.4c-0.2,0.2-0.3,0.4-0.3,0.7v4c-4.1-0.8-8.4-0.9-12.5-0.2c-0.1,0-0.2,0-0.3,0
	c-1.4,0.4-2.8,0.8-4.2,1.3c-6.2,1.7-12.8,1.2-18.6-1.6c-6.1-2.8-11.1-7.4-16.5-11.3c-6-4.3-12.6-8.4-20.2-8.6
	c-5.2-0.2-10.5,0.2-15.7,0.2v2.1c4.9,0,9.8-0.3,14.7-0.2c2.8-0.1,5.7,0.4,8.3,1.4c4.3,1.8,8.3,4.2,12.1,7C76,58.7,80,62.2,84.6,65
	c-3.3-0.2-6.7-0.1-10,0.3c-4.5,0.5-8.8,1.8-12.8,3.9c-2.1,1.2-4.1,2.6-5.8,4.4l1.6,1.6c0.4-0.3,0.7-0.7,1.1-1l0.5-0.5l0.3-0.2
	l0.1-0.1l0.2-0.1c0.8-0.6,1.7-1.2,2.5-1.7c0.9-0.5,1.8-1,2.8-1.4l0.3-0.1l0.2-0.1l0.8-0.3c0.5-0.2,1-0.3,1.4-0.5
	c4.4-1.3,8.9-2,13.5-1.8c2.8,0,5.5,0.2,8.3,0.5h0.2c4.2,1.7,8.8,2.4,13.3,2c-0.3,0.3-0.5,0.6-0.8,0.9c-0.2,0.2-0.4,0.4-0.7,0.6
	l-0.1,0.1l-0.2,0.1c-0.1,0.1-0.3,0.2-0.4,0.3l-0.1,0.1l-0.1,0.1l-0.4,0.1c-0.3,0.1-0.6,0.2-0.9,0.2c-1.2,0.2-2.4,0.4-3.6,0.7
	c-1.2,0.3-2.3,0.8-3.4,1.5c-2.3,1.3-4,3.4-5,5.8c-1,2.7-1.5,5.6-1.5,8.5h-0.8c-0.8,0.1-1.7,0.2-2.5,0.3c0,0,0.9,2.9,0.9,3
	c0.2,0.9,0.3,1.8,0.3,2.6c-0.1,1.8-0.5,3.6-1.3,5.2c-0.5,1-1.1,1.9-1.8,2.7c-0.4,0.5-0.8,0.9-1.3,1.4h-1.2c-0.7,0-1.3,0-2,0.1
	l-1.2,0.1l-1.3,0.2v-4.6h2.6c0.7,0,1.5-0.2,2.1-0.6c0.3-0.3,0.8-0.7,0.8-0.7c1-1,1.6-2.3,1.6-3.7c0-0.5-0.4-0.9-0.9-0.9h-2.9
	c-1.2,0-2.3,0.4-3.3,1.1v-1.7c0.8,0.3,1.7,0.2,2.4-0.2c0.8-0.4,1.3-1.1,1.6-1.9c1.7,0.4,3.4-0.7,3.8-2.4c0.1-0.5,0.1-0.9,0-1.4
	c1.6-0.5,2.6-2.3,2-4c-0.1-0.4-0.4-0.8-0.6-1.1c1.2-1.3,1.1-3.3-0.2-4.4c-0.3-0.3-0.8-0.6-1.2-0.7c0.4-1.7-0.7-3.4-2.4-3.8
	c-0.5-0.1-0.9-0.1-1.4,0c-0.5-1.7-2.3-2.6-4-2c-0.4,0.1-0.8,0.4-1.2,0.7c-1.3-1.2-3.3-1.1-4.5,0.2c-0.3,0.3-0.5,0.7-0.7,1.2
	c-1.7-0.4-3.4,0.7-3.8,2.4c-0.1,0.5-0.1,0.9,0,1.4c-1.7,0.5-2.6,2.3-2.1,3.9c0.1,0.4,0.4,0.9,0.7,1.2c-1.2,1.3-1.1,3.3,0.2,4.4
	c0.3,0.3,0.8,0.6,1.2,0.7c-0.4,1.7,0.7,3.4,2.4,3.8c0.5,0.1,0.9,0.1,1.4,0c0.3,0.8,0.9,1.5,1.7,1.9c0.8,0.4,1.7,0.4,2.5,0.1v1.9
	c-0.9-0.8-2.1-1.2-3.3-1.2h-2.9c-0.5,0-0.9,0.4-0.9,0.9c0,1.4,0.6,2.7,1.6,3.7c0.5,0.6,1.2,1.1,2,1.3c1.2,0.1,2.4,0.1,3.6,0.1v4.9
	c-4.3,0.7-8.4,2.2-12.3,4.2c0-0.2,0-0.3,0-0.3v-0.1c0-0.1,0-0.4,0-0.8c0.4-0.1,0.9-0.3,1.3-0.5c1.2-0.4,2.3-1,2.8-1.2
	c0.6-0.2,1.1-0.6,1.4-1.1l0,0c0.3-0.5,0.4-1.2,0.3-1.8v-0.1c0,0-0.1-0.2-0.1-0.5v-0.1c0-0.1,0-0.2-0.1-0.3c-0.1-0.3-0.1-0.6-0.2-0.9
	c-0.1-0.3-0.2-0.7-0.3-0.9L64,99.8l-0.2-0.6v-0.1c-0.2-0.4-0.5-0.8-0.8-1.1c-0.1-0.1-0.2-0.2-0.3-0.2l0,0l-0.2-0.1l0,0
	c-0.5-0.2-1-0.3-1.5-0.1c-0.4,0-1.7,0.2-3,0.4l-1.4,0.3c-0.1-0.1-0.2-0.3-0.2-0.4l-0.2-0.3l-0.1-0.1l-0.1-0.1l-0.5-0.6
	c0.3-0.3,0.5-0.8,0.8-1.2c0.7-1.1,1.3-2.2,1.5-2.6c0.4-0.5,0.5-1.1,0.5-1.7l0,0c-0.1-0.6-0.4-1.1-0.8-1.5l-0.1-0.1l-0.4-0.4l0,0
	L56.8,89c-0.2-0.2-0.5-0.5-0.8-0.7l-1.5-1.1h-0.1c-0.6-0.4-1.3-0.5-2-0.4c-0.5,0.1-0.9,0.4-1.3,0.8c-0.3,0.3-1.3,1.1-2.2,2
	c-0.3,0.3-0.6,0.7-1,1l-0.4-0.2l-0.4-0.1l-0.5-0.2L46.5,90h-0.2c0-0.4,0-0.9,0-1.4c0-0.7-0.1-1.4-0.2-2.2l-0.1-0.8
	c0-0.5-0.1-1-0.4-1.4c-0.4-0.6-1.1-1-1.8-1.1c-0.2,0-0.5-0.1-0.7-0.1H43L41.9,83c-0.5,0-0.9,0-1.4,0h-0.5c-0.7,0-1.4,0.3-1.9,0.8
	c-0.3,0.4-0.5,0.8-0.6,1.3c0,0.2-0.1,0.5-0.2,0.8c-0.1,0.7-0.3,1.4-0.4,2.1c-0.1,0.5-0.1,1-0.2,1.4h-0.1l-0.2,0.1l-0.4,0.1
	c-0.2,0-0.4,0.1-0.7,0.2L35,90c-0.2-0.3-0.5-0.7-0.8-1.1c-0.8-1-1.7-1.9-2-2.3c-0.3-0.4-0.7-0.7-1.2-0.9c-0.7-0.2-1.5-0.1-2.1,0.3
	L27.3,87l-1.6,1.1c-0.2,0.1-0.4,0.3-0.5,0.5V92c0.3,0.6,0.6,1.3,1,2.1c0.2,0.4,0.4,0.8,0.7,1.2l-0.2,0.2c-0.1,0.2-0.3,0.3-0.4,0.5
	l0,0L26,96.4l-0.1,0.2l0,0v0.1l-0.5-0.2v3.2l0.6,0.2l1.2,0.4l0.7-1.3c0.1-0.2,0.3-0.4,0.4-0.6l0.2-0.3l0.3-0.4v-0.1
	c0,0,0.1-0.1,0.1-0.1l0,0l0.8-0.9l1-1l-0.5-0.9L30,94.6l-0.1-0.2c-0.3-0.5-0.7-1.2-1-1.7c-0.5-0.9-0.9-1.9-1.1-2.3l1.1-0.8l1.2-0.7
	c0.4,0.4,1.1,1.2,1.7,2c0.6,0.8,1,1.3,1.2,1.6v0.1l0.2,0.2l0.7,1l1.1-0.4l0.2-0.1h0l1.1-0.4l0,0l0.2-0.1l0.5-0.1l0.3-0.1l0,0
	c0.2-0.1,0.5-0.1,0.7-0.2l1.5-0.2l0.1-1.2c0-0.2,0.1-1.2,0.3-2.3c0.1-0.7,0.2-1.4,0.3-2c0-0.2,0.1-0.4,0.1-0.6h0.3
	c0.4,0,0.7,0,1.1,0l1.1,0.1h0.1H43l0.1,0.6c0.1,0.7,0.1,1.4,0.2,2c0,1,0,1.9,0,2.4v1.2l1.6,0.4l0.4,0.1l0.2,0.1l0.2,0.1l0.4,0.2
	l0.4,0.2c0.1,0,0.3,0.2,0.5,0.3l0.5,0.2l0.2,0.1l1.1,0.6l0.8-1l0.2-0.2c0.4-0.5,0.9-1,1.3-1.4c0.7-0.7,1.5-1.5,1.9-1.8l1.2,0.9
	c0.2,0.1,0.4,0.3,0.5,0.5l0.3,0.3l0.2,0.1c-0.3,0.5-0.8,1.4-1.3,2.2s-1,1.4-1.3,1.9l-0.7,1l0.8,0.9l0.1,0.1l0,0
	c0.4,0.5,0.7,0.9,0.9,1.2l0,0l0,0l0,0l0,0v0.1l0.7,1.1l0.1,0.2v0.1v0.1l0.5,1.1l1.2-0.3c0.5-0.1,1.4-0.3,2.3-0.5s2.1-0.3,2.6-0.3
	l0.1,0.2l0.3,1.1l0.3,1.1v0.2c-0.5,0.2-1.5,0.7-2.4,1s-1.7,0.6-2.2,0.8l-1.1,0.3l0.1,1.2c0,0.1,0,0.1,0,0.2l0,0c0,0.7,0,1.1,0,1.4
	l0,0c0,0-0.1,0.7-0.2,1.6l0,0c0,0.1,0,0.1,0,0.2l-0.1,0.7c-0.8,0.6-1.6,1.2-2.3,1.8c-1.3,0.8-2.7,1.6-4.1,2.3
	c-6.3-1.1-14.7-1.1-21.5,1.2l0.2-0.1l-0.6-1.1l0,0l-0.1-0.2l-0.5-1l-1.1,0.3v5.9C32.9,115.6,44.3,116,51,117.7 M131.2,90.2l0.1,10.5
	c-1.6-0.4-3.1-0.8-4.7-1l-0.1-9.5L131.2,90.2z M118.1,99.2c-0.9,0-1.8,0-2.7,0v-3.5c0-1.1,0.9-2,2-2s2,0.9,2,2v3.5H118.1 M123,77
	v1.2h-4.7V77H123z M117.2,83.6l7,4.4l0.1,11.4c-0.7-0.1-1.3-0.1-1.9-0.2s-1.2-0.1-1.8-0.1v-3.5c0-1.8-1.5-3.3-3.3-3.3
	c-1.8,0-3.3,1.5-3.3,3.3v3.5h-0.3c-1.1,0.1-2.2,0.2-3.3,0.3l-0.1-11.5L117.2,83.6z M108,90.4l0.1,9.6l-0.4,0.1
	c-1.5,0.3-2.9,0.7-4.3,1.1l-0.1-10.8L108,90.4z M126.3,61.9l7.4-5.4l3.3,2.2c0.4,0.3,0.9,0.2,1.2-0.2c0.1-0.1,0.2-0.3,0.2-0.5v-1.8
	h0.9V60c0,0.3,0.1,0.5,0.4,0.7l1.6,1.2v6.8c-3.4-0.4-6.9-1-10.2-1.9c-1.5-0.3-3-0.7-4.7-1L126.3,61.9z M69.2,118.1
	c-0.8-0.6-1.7-1.2-2.6-1.7c0.5-0.5,1.1-0.9,1.7-1.3c5.2-3.5,15.3-6.8,22.4-7.6l0.8,0.2c1.1,0.3,2.2,0.6,3.3,0.9l0.2,0.1
	c-7.8,0.7-18.2,4.3-23.6,7.8c-0.6,0.4-1.1,0.7-1.6,1.2L69.2,118.1 M99.8,110.6c1.2,0.6,2.3,1.3,3.3,2c-7.8-0.3-20.9,3.2-27.1,6.9
	c-0.6,0.3-1.1,0.7-1.7,1.1l-1,0.8c-0.7-0.6-1.4-1.2-2.2-1.8l0.1-0.1c0.6-0.5,1.2-0.9,1.9-1.3C78.9,114.6,92.4,110.4,99.8,110.6
	 M83.8,102.4c0.5-0.8,1-1.7,1.4-2.6c0.7-1.7,1.1-3.4,1.2-5.3c0-1.1-0.1-2.2-0.4-3.3c1.9-0.2,3.9-0.2,5.8-0.2h1.3
	c-0.7,2.5-0.6,5.1,0.1,7.6c0.3,0.9,0.6,1.8,1,2.6l0.2,0.4c0.5,0.9,1.1,1.8,1.7,2.7c-0.6,0.3-1.2,0.7-1.7,1l-0.2,0.1l-1-0.3
	c-1.7-0.5-3.4-0.8-5.1-1.1c-1.1-0.2-2.2-0.3-3.3-0.3c-0.7,0-1.3-0.1-2-0.1C83.2,103.2,83.5,102.8,83.8,102.4 M76.8,95.2h1.9
	c-0.4,1.6-1.8,2.6-3.4,2.6h-1.8v-0.4C74.1,96.1,75.4,95.2,76.8,95.2 M75.6,90.3c-0.1,0.3-0.4,0.6-0.7,0.7l0,0
	c-0.6,0.2-1.2-0.2-1.4-0.8c0-0.1,0-0.2,0-0.3v-1.8c0.4-0.1,0.8-0.2,1.2-0.3l0.9,1.6C75.7,89.7,75.7,90,75.6,90.3 M79,88.6L79,88.6
	c-0.4,0.4-1.2,0.4-1.6,0c-0.1-0.1-0.1-0.1-0.2-0.2l-0.9-1.6c0.3-0.3,0.6-0.6,0.9-0.9l1.6,0.9c0.5,0.3,0.7,1,0.4,1.5
	C79.2,88.4,79.1,88.5,79,88.6 M81.4,84.4L81.4,84.4c-0.1,0.3-0.3,0.6-0.6,0.7c-0.3,0.1-0.7,0.1-1-0.1l-1.6-0.9
	c0.2-0.4,0.3-0.7,0.3-1.1h1.9c0.3,0,0.7,0.2,0.9,0.4C81.5,83.7,81.5,84.1,81.4,84.4 M79.8,78.9L79.8,78.9c0.3-0.2,0.7-0.2,1-0.1
	c0.3,0.1,0.6,0.4,0.7,0.7l0,0c0.1,0.6-0.2,1.2-0.8,1.4c-0.1,0-0.2,0-0.3,0h-1.9c-0.1-0.4-0.2-0.8-0.3-1.2L79.8,78.9L79.8,78.9z
	 M77.2,75.6c0.3-0.6,1-0.8,1.5-0.5c0.1,0,0.2,0.1,0.3,0.2l0,0c0.4,0.4,0.4,1.2,0,1.6c-0.1,0.1-0.1,0.1-0.2,0.2L77.1,78
	c-0.3-0.3-0.5-0.6-0.9-0.9L77.2,75.6z M73.4,74c0-0.3,0.2-0.7,0.4-0.9c0.3-0.2,0.7-0.3,1-0.2l0,0c0.3,0.1,0.6,0.3,0.7,0.6
	c0.1,0.3,0.1,0.7-0.1,1l-0.9,1.6c-0.4-0.1-0.8-0.3-1.2-0.3L73.4,74z M69.2,73.6c0.1-0.3,0.4-0.6,0.7-0.6l0,0c0.3-0.1,0.7,0,1,0.2
	c0.3,0.2,0.4,0.5,0.4,0.9v1.9c-0.4,0.1-0.8,0.2-1.2,0.3l-0.9-1.6C69.1,74.3,69,73.9,69.2,73.6 M65.7,75.4L65.7,75.4
	c0.2-0.2,0.6-0.4,0.9-0.3c0.3,0,0.6,0.2,0.8,0.6l0.9,1.6c-0.3,0.3-0.6,0.6-0.9,0.9l-1.5-1c-0.5-0.3-0.7-1-0.4-1.5
	C65.6,75.5,65.7,75.4,65.7,75.4 M63.4,79.6L63.4,79.6c0.1-0.3,0.3-0.6,0.6-0.7c0.3-0.1,0.7-0.1,1,0.1l1.6,0.9
	c-0.2,0.4-0.3,0.8-0.3,1.2h-1.9c-0.6,0-1.1-0.5-1.1-1.1C63.3,79.8,63.3,79.7,63.4,79.6 M65,85.1c-0.3,0.2-0.7,0.2-1,0.1
	c-0.3-0.1-0.6-0.4-0.6-0.7l0,0c-0.2-0.6,0.2-1.2,0.8-1.4c0.1,0,0.2,0,0.3,0h1.9c0.1,0.4,0.2,0.8,0.3,1.2L65,85.1L65,85.1z
	 M67.6,88.4c-0.3,0.5-1,0.7-1.5,0.4c-0.1,0-0.2-0.1-0.2-0.2l0,0c-0.5-0.4-0.5-1.1-0.1-1.6c0.1-0.1,0.2-0.2,0.3-0.2l1.6-0.9
	c0.3,0.3,0.6,0.6,0.9,0.9L67.6,88.4z M68.2,82c0-2.3,1.9-4.2,4.2-4.2s4.2,1.9,4.2,4.2s-1.9,4.2-4.2,4.2S68.2,84.3,68.2,82L68.2,82
	 M70.9,90.8c-0.3,0.2-0.7,0.3-1,0.2l0,0c-0.3-0.1-0.6-0.3-0.7-0.7c-0.1-0.3-0.1-0.7,0.1-1l0.9-1.6c0.4,0.1,0.8,0.3,1.2,0.3V90
	C71.4,90.3,71.2,90.6,70.9,90.8 M69.5,98c-1.6,0-3-1.1-3.4-2.6H68c1.5,0,2.9,1,3.3,2.4V98L69.5,98z M61.5,110.5
	c3.7-1.8,7.7-3.1,11.9-3.6c1-0.1,2-0.2,3-0.3h0.3c0.9,0,2.7-0.1,3.8-0.1h2.4c-6.2,1.7-12.7,4.3-16.5,7c-0.6,0.4-1.1,0.9-1.7,1.3
	l-0.2,0.2c-1.9-1.1-3.9-2-6-2.8C59.4,111.6,60.4,111,61.5,110.5"/>
<path class="st1" d="M48.2,211.9l-1.2,1.5c-1.2-0.4-2.3-1-3.3-1.6l1.7-2.3l1.1-1.4c-0.2-0.1-1.2-0.9-1.4-1.1
	c-3.5-2.9-10.7-6.9-15.9-7.6l0,0c-0.7-0.1-3.2-0.3-3.9-0.4l-0.1,2.9l-0.1,1.1v1.8l0.1-0.1c0.8,0.1,1.6,0.2,2.4,0.4
	c5.4,1.1,10.4,3.6,13.5,7c0.1,0.1,0.6,0.5,0.6,0.5c1.4,1.2,3.1,2,4.9,2.4c-0.3,1.5-1,2.9-2.1,4c-0.4-0.5-0.8-0.9-1.3-1.2
	c-1.3-0.9-2.9-1.2-4.4-1c-1.3,0-2.6-0.2-3.8-0.6c-1.6-0.7-3.1-1.8-4.2-3.2c-0.6-0.9-1.3-1.8-2.1-2.6c-1-0.8-2.3-1.2-3.6-1.3v1.7
	c0.8,0,1.7,0.3,2.4,0.7c1,1,1.9,2.1,2.6,3.3c1,1,2.2,1.9,3.4,2.6c1.7,0.7,3.6,1,5.4,1.1l0,0h0.3l0,0c1-0.1,2,0.1,2.9,0.6
	c0.4,0.3,0.8,0.6,1.1,1h-0.1l0.9,1.4l0.3-0.1l0,0l0,0l0.2-0.2c0.4-0.2,0.7-0.5,1.1-0.7l-0.2-0.2c1.4-1.4,2.3-3.1,2.8-5l0.1-0.5
	c0-0.2,0.2-1.2,0.2-1.2c-0.3,0-0.6-0.1-0.9-0.1l0.9-1.1l0.7-0.9l0.8-1l-4.1-0.8L48.2,211.9z M28.2,203.5c-0.6-0.1-1.2-0.2-1.9-0.3
	l1.7-2.3L29,201c0.8,0.1,1.5,0.3,2.3,0.5l-1.8,2.3C29.1,203.7,28.6,203.6,28.2,203.5 M31,204.2l1.8-2.2c1.3,0.5,2.6,1,3.8,1.6
	l-1.7,2.1C33.7,205.1,32.3,204.6,31,204.2 M36.2,206.3l1.7-2.1c0.9,0.5,1.7,1,2.5,1.5l-1.7,2.1C37.9,207.3,37.1,206.8,36.2,206.3
	 M39.9,208.6l1.7-2.1c0.9,0.6,1.7,1.2,2.5,1.9l-1.8,2.4C41.5,210,40.7,209.3,39.9,208.6"/>
<path class="st1" d="M42.9,187c3.3,0.5,6.4,2,8.9,4.2L53,189c-2.4-2.4-5.6-3.9-9-4.4L42.9,187z"/>
<path class="st1" d="M38.1,195.6c3.4,0.6,6.5,2.1,9,4.4l1.2-2.3c-1.9-1.6-4.2-3.8-8.9-4.5L38.1,195.6z"/>
<path class="st1" d="M40.5,191.1c3.4,0.6,6.5,2.1,9,4.4l1.2-2.3c-2.5-2.4-5.6-3.9-9-4.3L40.5,191.1z"/>
<path class="st1" d="M36.7,186.2c-1.7-1.3-3.5-2.4-5.5-3.1l0.1-0.1c0.2-0.2,0.9-1.2,0.6-1.4s-0.9,0.1-1.4,0.4
	c-0.1-0.5-0.2-1-0.5-1.1s-0.7,1-0.8,1.4v0.1c-1.3-0.4-2.6-0.7-3.9-0.9l-0.1,1.4v1.2c3.7,0.7,7.2,2.2,10.3,4.4L36.7,186.2z"/>
<path class="st1" d="M25.3,189.3c0.1,0,0.2,0,0.4,0c2.7,0.8,5.1,2.2,7.3,3.9l1.2-2.2c-2.6-2-5.6-3.4-8.8-4.3
	C25.3,187.6,25.2,188.4,25.3,189.3"/>
<path class="st1" d="M39.6,181.1l-0.4-0.2c-0.5-0.3-0.9-0.5-1.4-0.7c0.3,0,0.5-0.2,0.7-0.4c0.3-0.2,1-1.2,0.6-1.4s-1,0-1.4,0.4
	c-0.1-0.5-0.2-1-0.5-1.1s-0.7,1-0.8,1.4c0,0.2,0,0.3,0,0.5c-2.4-1.1-4.9-1.9-7.5-2.5c0.2-0.2,0.3-0.4,0.4-0.6
	c0.1-0.3,0.3-1.5-0.1-1.6s-0.9,0.6-1.1,1.1c-0.3-0.5-0.8-1.1-1.1-1.1s-0.2,1.2-0.1,1.6l0.1,0.2c-0.6-0.1-1.1-0.2-1.7-0.3v2.6
	c4.6,0.7,9,2.3,13,4.6L39.6,181.1z"/>
<path class="st1" d="M42.8,221.7c-0.4-0.5-0.9-1-1.4-1.4c-1.3-0.9-2.9-1.2-4.4-1c-1.3,0-2.6-0.2-3.8-0.6c-1.6-0.8-3-1.9-4.1-3.2
	c-0.6-0.9-1.3-1.8-2.1-2.6c-0.5-0.4-1.1-0.7-1.6-0.9v1.8l0.5,0.2c1,1,1.9,2.1,2.6,3.3c1,1,2.2,1.9,3.5,2.6c1.7,0.7,3.6,1,5.4,1.1
	l0,0h0.3l0,0c1-0.1,2,0.1,2.9,0.6c0.4,0.3,0.8,0.6,1.1,1h-0.1l0.9,1.4l0.3-0.1c0.5-0.3,0.9-0.6,1.4-0.9l-0.2-0.2
	C43.4,222.4,43.1,222,42.8,221.7"/>
<path class="st1" d="M58.3,152.9c0-0.7-0.5-1.2-1.1-1.2c-0.7,0-1.2,0.5-1.2,1.1s0.5,1.2,1.1,1.2c0,0,0,0,0,0
	C57.7,154,58.3,153.5,58.3,152.9"/>
<path class="st1" d="M53.6,152.5c0.7,0,1.2-0.5,1.2-1.2c0-0.7-0.5-1.2-1.2-1.2s-1.2,0.5-1.2,1.2l0,0C52.5,152,53,152.5,53.6,152.5"
	/>
<rect x="70.1" y="149.1" transform="matrix(0.4785 -0.8781 0.8781 0.4785 -93.3692 142.7005)" class="st1" width="6.8" height="1.7"/>
<rect x="73.8" y="151.1" transform="matrix(0.4785 -0.8781 0.8781 0.4785 -93.2093 147.0053)" class="st1" width="6.8" height="1.7"/>
<rect x="77.5" y="153.2" transform="matrix(0.4785 -0.8781 0.8781 0.4785 -93.0586 151.3052)" class="st1" width="6.8" height="1.7"/>
<path class="st1" d="M98.5,168.4c-0.9-0.3-1.8-0.4-2.8-0.3c-1.6,0.3-3.3,0.7-4.9,1.2c-1.1,0.3-2.1,0.6-3.2,0.9c-1,0.3-2,0.4-3.1,0.4
	h-0.8h-0.3h-0.1h-0.1c-0.5-0.1-1-0.2-1.5-0.3c-1-0.3-1.9-0.7-2.8-1.1c-0.9-0.5-1.8-1.1-2.7-1.7c-0.9-0.7-1.8-1.2-2.7-1.7
	c-1.1-0.5-2.2-0.8-3.4-0.8c-1.2,0-2.3,0.1-3.4,0.5c-0.9,0.3-1.9,0.5-2.8,0.7l-1.2,0.2l-0.5,0.1h-0.3h-0.1c-0.7,0.1-1.4,0.1-2.2,0.1
	c-0.4,0-0.7,0-1.1-0.1l0,0h-0.3l-0.6-0.1c-0.8-0.2-1.6-0.4-2.4-0.8l-0.2-0.1l-0.3-0.1l-0.7-0.3c-0.5-0.2-0.9-0.5-1.3-0.7l-0.9-0.5
	l0,0l0,0l-0.5-0.3c-3.8-3-8-5.4-12.6-6.8c-3.6-1.1-7.4-1.8-11.2-2.1c-0.8,0-1.5-0.1-2.2-0.1v2.2c0.5,0,1.1,0,1.6,0.1
	c0.8,0,1.5,0.1,2.3,0.2l1.3,0.1h0.3h0.1l0.7,0.1c1.9,0.3,3.8,0.7,5.7,1.3c1,0.3,2.1,0.6,3.1,1l0.8,0.3l0.3,0.1h0.1l0.3,0.1
	c0.5,0.2,1,0.5,1.5,0.7c1.2,0.6,2.3,1.2,3.5,1.9c1.1,0.7,2.2,1.6,3.2,2.4l0,0l0,0c-0.8,0.7-1.7,1.5-2.4,2.3c-0.9-0.5-1.9-1-2.8-1.4
	c0.3,0.1,0.6-0.1,0.8-0.3s1-1.2,0.6-1.4s-1,0-1.4,0.4c-0.1-0.5-0.2-1-0.5-1.1s-0.7,1-0.8,1.4c0,0.2,0,0.4,0,0.6
	c-2.5-1-5.2-1.9-7.8-2.5c0.1-0.1,0.2-0.2,0.3-0.4c0.2-0.3,0.7-1.4,0.4-1.5s-0.9,0.2-1.3,0.6c-0.2-0.5-0.4-0.9-0.7-1
	s-0.5,1.1-0.5,1.5c0,0.1,0,0.3,0.1,0.4c-1.7-0.3-3.5-0.5-5.3-0.7c0.1-0.1,0.1-0.2,0.2-0.4c0.1-0.3,0.3-1.5-0.1-1.6s-0.9,0.6-1.1,1.1
	c-0.3-0.5-0.8-1.1-1.1-1.1s-0.2,1.2-0.1,1.6c0,0.1,0.1,0.2,0.1,0.3h-0.2h-1.1v3.1h0.3h0.8c6.8,0.2,13.4,1.9,19.4,5
	c-0.6,0.9-1.2,1.8-1.7,2.8c-1-0.5-2-1-3-1.4c0.1-0.1,0.2-0.1,0.3-0.2c0.3-0.2,1-1.2,0.6-1.4s-1,0-1.4,0.4c-0.1-0.5-0.2-1-0.5-1.1
	s-0.7,1-0.8,1.4c0,0.1,0,0.2,0,0.3c-1.7-0.6-3.4-1-5.2-1.4l0.1-0.1c0.2-0.3,0.7-1.4,0.4-1.5s-0.9,0.2-1.3,0.6
	c-0.2-0.5-0.4-0.9-0.7-1s-0.5,1.1-0.5,1.5v0.1c-1.2-0.2-2.3-0.3-3.5-0.4c0.1-0.1,0.1-0.2,0.1-0.3c0.1-0.3,0.3-1.5-0.1-1.6
	s-0.9,0.6-1.1,1.1c-0.3-0.5-0.8-1.1-1.1-1.1s-0.2,1.2-0.1,1.6l0.1,0.2h-0.9v2.7h0.9c10.3,0.3,19.6,4.5,25,10.7
	c-3.1-1.4-7-2.7-7.2-2.8l-1-0.3l-9.9,17.5c-2.2-1.8-4.9-3-7.7-3.5c-0.1,0-0.1,0.1-0.1,0.3v1.3c0,0.3,0,0.6,0,0.7
	c2.7,0.5,5.2,1.8,7.1,3.8l0,0l1.2,0.5c0,0,5.3,2.1,6.9,2.9s5.9,3.9,6,3.9l1.1,0.8l10.6-20l-0.7-0.6c-0.3-0.3-0.6-0.5-0.9-0.7
	l-0.3-0.6c-1.4-2.9-3.4-5.5-5.9-7.6c1.1-1.7,2.4-3.2,3.9-4.6v-3.3c-2.3,1.7-4.3,3.8-6,6.2c-0.7-0.5-1.3-0.9-2-1.4
	c0.1-0.1,0.2-0.2,0.2-0.4c0.4-0.8,0.9-1.6,1.4-2.4c0.6-0.8,1.3-1.6,2-2.4c0.8-0.8,1.6-1.5,2.5-2.2c2.4,1.4,5.1,2.1,7.9,2.1
	c1.6-0.1,3.1-0.3,4.7-0.7c1.1-0.3,2.1-0.6,3.1-0.8l0.4-0.1h0.1h0.2c0.3,0,0.5,0,0.8,0c0.5,0,1,0,1.4,0.1c2.1,0.4,3.6,1.9,5.4,3.1
	c1.8,1.2,3.9,2,6,2.4c1.1,0.2,2.2,0.3,3.3,0.1c1.2-0.1,2.3-0.4,3.4-0.8c1-0.3,1.9-0.5,2.9-0.8c0.8-0.2,1.5-0.5,2.3-0.7
	c0.4-0.1,0.8-0.2,1.3-0.3l0,0h0.2h0.3c0.2,0,0.5,0,0.7,0h0.3h0.1c0.2,0,0.4,0.1,0.6,0.2h0.1l0,0l0.3,0.1l0.4,0.3l0.3,0.2
	c1.2,0,2.5-0.1,3.7-0.2c-0.7-0.4-1.4-0.9-2.1-1.4c-0.6-0.5-1.3-0.9-2.1-1.2 M44.5,166L44.5,166c0.1,0.1,0.2,0.1,0.2,0.1L44.5,166
	 M53,184.7c1.3,0.9,2.5,1.8,3.1,2.3l-8.9,17c-1.5-1-4.7-3.1-5.9-3.7s-5.1-2.2-6.8-2.9l9.4-16.7c1.4,0.5,4.3,1.5,6.4,2.5
	C51.3,183.6,52.2,184.1,53,184.7"/>
<path class="st1" d="M115.3,165.8c-0.8,0.2-1.5,0.4-2.3,0.6c-0.5,0.2-1,0.3-1.5,0.4l0,0h-0.2h-0.4c-0.3,0-0.6,0-0.8,0
	c0.2,0-0.2,0-0.3,0l-0.5-0.1c-0.4-0.1-0.9-0.2-1.3-0.3c-0.7-0.2-1.4-0.4-2.1-0.7l-1-0.4l-0.2-0.1h-0.1h-0.1L104,165l-1-0.4l1.3-20
	c-0.6,0.2-1.2,0.2-1.8,0.2h-0.3l-0.6,9.2l-1.9-0.5l2.2-8.8c-0.7-0.1-1.4-0.2-2-0.5l-2.2,8.8l-1.9-0.5l3.9-8.4
	c-0.6-0.3-1.2-0.7-1.8-1.2L88,164.1c-0.2,0.4-0.3,0.7-0.5,1.1l0,0c-0.2,0-0.4,0-0.7,0.1c-0.4,0-0.9,0-1.3,0H85
	c-0.2,0-0.4-0.1-0.7-0.1c-0.9-0.2-1.8-0.4-2.7-0.8h-0.1h-0.1l-0.2-0.1l-0.6-0.3c-0.4-0.2-0.8-0.4-1.3-0.7c-0.8-0.5-1.6-1.1-2.4-1.6
	c-1.6-1.2-3.5-1.9-5.5-2c-2-0.1-3.8,0.6-5.7,1.1c-0.7,0.1-1.3,0.3-2,0.4l-0.5,0.1l0,0H63c-0.3,0-0.7,0.1-1,0.1c-0.7,0-1.4,0-2.1-0.1
	l0,0l-0.3-0.1l0,0c2.5-2.9,4-6.5,4.4-10.3l0.1-0.8c0-0.4,0-0.7,0-1.1l0,0v-0.9c-0.6,0-1.3,0-1.9,0c-1.3-0.1-2.5-0.5-3.7-1l28.9-15.7
	l-2.5,4.6c-0.2,0.4-0.1,0.9,0.3,1.1c0,0,0,0,0,0l0.4,0.2c1,0.6,1.4,1.8,0.8,2.9c-0.6,1-1.8,1.4-2.9,0.8s-1.4-1.8-0.8-2.9
	c0,0,0,0,0,0l-1.5-0.8c-0.6,1-0.6,2.2-0.1,3.3l-8.2,1.3l-0.6-0.3c-0.4-0.2-0.9-0.1-1.1,0.3c0,0,0,0,0,0l0,0l-5.7,10.4
	c-0.2,0.4-0.1,0.9,0.3,1.1c0,0,0,0,0,0l0,0l16,8.6c0.4,0.2,0.9,0.1,1.1-0.3c0,0,0,0,0,0l0,0l5.7-10.4c0.2-0.4,0.1-0.9-0.3-1.1
	c0,0,0,0,0,0l-1.3-0.7l-2.3-6.6c2.1-0.1,3.7-1.8,3.6-3.9c0-1.2-0.7-2.3-1.6-3l3.5-6.3h0.1l-1-3.6l-37.1,13.2l0.1-0.1l1.4-2.5
	l-0.6-0.4c-0.5-0.4-1.1-0.8-1.6-1.1c-1.7-1.1-3.4-2-5.2-2.8l1.5-2.7l1.3-2.4l1.5-2.6l-9.2-0.6l5,4.5l-1.7,3.2
	c-4.7-1.8-9.7-2.7-14.7-2.8h-0.1c-1,0-2,0-3.1,0.1l-1.6,2.9v0.1v6.5c1.8-0.1,3.7-0.1,5.5,0c8.3,0.6,16.3,3.7,21.7,8.6
	c0.2,0.2,1,0.7,1,0.7c2.3,1.6,5,2.6,7.9,2.9c-0.6,4.7-1.7,6.6-4.5,9.5c-0.4-0.2-0.8-0.3-1.2-0.6c-1-0.5-1.9-1-2.8-1.6
	c-3.8-3-8-5.4-12.6-6.8c-3.6-1.1-7.4-1.8-11.2-2.1c-1.2-0.1-2.4-0.1-3.6-0.1v2.2c1,0,2,0,3,0.1c0.8,0,1.5,0.1,2.3,0.2l1.3,0.1h0.3
	h0.1l0.7,0.1c1.9,0.3,3.8,0.7,5.7,1.3c1,0.3,2.1,0.6,3.1,1l0.8,0.3l0.3,0.1h0.1l0.3,0.1c0.5,0.2,1,0.5,1.5,0.7
	c1.2,0.6,2.3,1.3,3.4,2.1c1.2,0.7,2.3,1.5,3.3,2.4l0,0l0.2,0.1c2.7,1.9,5.9,3.1,9.3,3.4c1.4,0,2.7-0.1,4.1-0.4
	c0.7-0.1,1.4-0.3,2.1-0.5c1-0.2,1.9-0.6,2.9-0.8c1.7-0.3,3.5,0.1,4.9,1c0.8,0.5,1.5,1,2.3,1.6c0.8,0.5,1.6,1,2.4,1.4
	c1.7,0.9,3.6,1.4,5.6,1.6c1.7,0.1,3.3-0.1,4.9-0.6l1-0.3c0.8-0.3,1.7-0.5,2.5-0.7l0.5-0.1l0.2-0.1c0.4-0.1,0.8-0.2,1.2-0.3l0.4-0.1
	h0.1h0.4h0.2c0.3,0,0.7,0,1,0l0.7,0.1h0.1l0.4,0.1c0.6,0.1,1.1,0.3,1.7,0.5l0.2,0.1l1.1,0.4l0.5,0.2l0.2,0.1l0.2,0.1h0.1
	c0.6,0.3,1.3,0.6,1.9,0.8c1.4,0.6,2.8,1,4.3,1.3c1.2,0.3,2.5,0.3,3.7,0c0.6-0.1,1.2-0.3,1.8-0.5l1.1-0.3l0.4-0.1h0.9h0.2
	c0.3,0.1,0.7,0.2,1,0.3c0.9-0.2,1.9-0.5,2.8-0.8c-1-0.9-2.2-1.5-3.5-1.7c-0.7-0.1-1.4-0.1-2.1,0 M82.3,142.4l2.3,5.9l-9.1-4.9
	L82.3,142.4z M86.8,151.4l-4.8,8.9l-14.5-7.8l4.8-8.9L86.8,151.4z M86.3,129.5l-10.9,5.9l-3.2-0.9L86.3,129.5z M69.5,136l3.3,0.9
	l-4.4,2.4L69.5,136z M67.1,136.4l-1.2,3.6l-4.8-1.6L67.1,136.4z M48.4,140.7l-0.3,0.1c-5.2-2.8-10.9-4.5-16.8-5
	c-1.6-0.1-3.3-0.2-4.9-0.1l2.2-4h1.4c7.2,0,14.2,2,20.2,5.9L48.4,140.7z M54.9,145.4c-0.7-0.4-1.2-0.7-1.2-0.7
	c-1-0.9-2.1-1.7-3.2-2.4l0.1-0.2l6-2.1L54.9,145.4z M58.9,140l5.1,1.7l-6.9,3.7L58.9,140z M94.9,163.3c-0.9,0.2-1.8,0.4-2.7,0.7
	s-1.5,0.4-2.2,0.6l4.7-10.2l2.3,0.6L94.9,163.3z M100.9,163.7c-1.2-0.4-2.4-0.6-3.7-0.6l1.9-7.6l2.3,0.6L100.9,163.7z"/>
<path class="st1" d="M137.2,111.5c0-0.1,0-0.1-0.1-0.2l-0.7-1.7c0.2-0.2,0.3-0.5,0.2-0.8c-0.1-0.3-0.3-0.6-0.7-0.7
	c-0.1,0-0.2-0.1-0.2-0.2c0-0.2-0.1-0.3-0.2-0.4c-0.5-0.5-0.9-1-1.4-1.4c-0.3-0.3-0.7-0.2-1,0c-0.1,0.1-0.2,0.3-0.2,0.4
	c0,0.2,0.1,0.4,0.2,0.5l0.3,0.3l0.9,0.9c0,0,0.1,0.1,0.1,0.2c-0.2,0.2-0.3,0.4-0.3,0.6c0,0.2,0.1,0.5,0.3,0.7
	c0.2,0.2,0.4,0.3,0.6,0.3c0.2,0.5,0.4,1.1,0.7,1.6c0,0.1,0.2,0.2,0.3,0.3h0.6h0.6L137.2,111.5z"/>
<path class="st1" d="M132.9,117c0.3,0.2,0.7,0.4,1.1,0.7c0-0.2,0.1-0.3,0.1-0.5c0.3-1.1,0.8-2.1,1.6-3l0.1-0.1h0.3l4.5,0.2h0.3
	l0.1,0.2c0.6,0.9,1.1,2,1.3,3.1c0.1,0.6,0.1,1.2,0,1.8l-0.1,0.5c0.7-0.1,1.3-0.2,2-0.3v-0.3c0.1-0.7,0-1.3-0.1-2
	c-0.3-1.4-0.8-2.7-1.6-3.8c-0.2-0.3-0.4-0.5-0.7-0.7c-0.4-0.2-0.8-0.3-1.2-0.3l-4.5-0.2c-0.4,0-0.8,0-1.2,0.2
	c-0.3,0.2-0.6,0.4-0.8,0.7c-0.9,1.1-1.5,2.3-1.9,3.6l0.1,0.1L132.9,117"/>
</svg>
